<mxfile host="app.diagrams.net" modified="2023-09-15T02:59:49.206Z" agent="Mozilla/5.0 (Windows NT 10.0; Win64; x64) AppleWebKit/537.36 (KHTML, like Gecko) Chrome/116.0.0.0 Safari/537.36" etag="3EBUGC1UFZrZCPJtlMur" version="21.7.5" type="github">
  <diagram name="Page-1" id="VT7CqMYBoNhunrsXieBj">
    <mxGraphModel dx="880" dy="446" grid="1" gridSize="10" guides="1" tooltips="1" connect="1" arrows="1" fold="1" page="1" pageScale="1" pageWidth="850" pageHeight="1100" math="0" shadow="0">
      <root>
        <mxCell id="0" />
        <mxCell id="1" parent="0" />
        <mxCell id="l8dGZNgzYC8mOvtLXoca-4" value="&lt;p style=&quot;margin:0px;margin-top:4px;text-align:center;&quot;&gt;&lt;i&gt;&amp;lt;&amp;lt;Interface&amp;gt;&amp;gt;&lt;/i&gt;&lt;br&gt;&lt;b&gt;Interface&lt;/b&gt;&lt;/p&gt;&lt;hr style=&quot;border-color: var(--border-color);&quot;&gt;&lt;p style=&quot;border-color: var(--border-color); margin: 0px 0px 0px 8px;&quot;&gt;+ Attribute1: GET&lt;br style=&quot;border-color: var(--border-color);&quot;&gt;+ Attribute2: POST&lt;/p&gt;&lt;p style=&quot;border-color: var(--border-color); margin: 0px 0px 0px 8px;&quot;&gt;+ Attribute3: PUT&lt;br style=&quot;border-color: var(--border-color);&quot;&gt;&lt;/p&gt;&lt;p style=&quot;border-color: var(--border-color); margin: 0px 0px 0px 8px;&quot;&gt;+ Attribute4: DELETE&lt;br style=&quot;border-color: var(--border-color);&quot;&gt;&lt;/p&gt;&lt;p style=&quot;border-color: var(--border-color); margin: 0px 0px 0px 8px;&quot;&gt;&lt;br style=&quot;border-color: var(--border-color);&quot;&gt;&lt;/p&gt;&lt;hr size=&quot;1&quot;&gt;&lt;p style=&quot;margin:0px;margin-left:4px;&quot;&gt;persons()&lt;/p&gt;&lt;p style=&quot;margin:0px;margin-left:4px;&quot;&gt;single_person()&lt;/p&gt;" style="verticalAlign=top;align=left;overflow=fill;fontSize=12;fontFamily=Helvetica;html=1;whiteSpace=wrap;" vertex="1" parent="1">
          <mxGeometry x="20" y="180" width="190" height="170" as="geometry" />
        </mxCell>
        <mxCell id="l8dGZNgzYC8mOvtLXoca-5" value="&lt;p style=&quot;margin:0px;margin-top:6px;text-align:center;&quot;&gt;&lt;b&gt;/api&lt;/b&gt;&lt;/p&gt;&lt;hr&gt;&lt;p style=&quot;margin:0px;margin-left:8px;&quot;&gt;GET: list all persons&lt;br&gt;POST: add new person&lt;/p&gt;&lt;p style=&quot;margin:0px;margin-left:8px;&quot;&gt;PUT: unused&lt;/p&gt;&lt;p style=&quot;margin:0px;margin-left:8px;&quot;&gt;DELETE: unused&lt;/p&gt;&lt;p style=&quot;margin:0px;margin-left:8px;&quot;&gt;&lt;br&gt;&lt;/p&gt;" style="align=left;overflow=fill;html=1;dropTarget=0;whiteSpace=wrap;" vertex="1" parent="1">
          <mxGeometry x="330" y="100" width="180" height="110" as="geometry" />
        </mxCell>
        <mxCell id="l8dGZNgzYC8mOvtLXoca-6" value="" style="shape=component;jettyWidth=8;jettyHeight=4;" vertex="1" parent="l8dGZNgzYC8mOvtLXoca-5">
          <mxGeometry x="1" width="20" height="20" relative="1" as="geometry">
            <mxPoint x="-24" y="4" as="offset" />
          </mxGeometry>
        </mxCell>
        <mxCell id="l8dGZNgzYC8mOvtLXoca-7" value="&lt;p style=&quot;margin:0px;margin-top:6px;text-align:center;&quot;&gt;&lt;b&gt;/api/user_id&lt;/b&gt;&lt;/p&gt;&lt;hr&gt;&lt;p style=&quot;margin:0px;margin-left:8px;&quot;&gt;GET: list person details&lt;br&gt;POST: add new person&lt;/p&gt;&lt;p style=&quot;margin:0px;margin-left:8px;&quot;&gt;PUT: update person&lt;/p&gt;&lt;p style=&quot;margin:0px;margin-left:8px;&quot;&gt;DELETE: cancel person&lt;/p&gt;&lt;p style=&quot;margin:0px;margin-left:8px;&quot;&gt;&lt;br&gt;&lt;/p&gt;" style="align=left;overflow=fill;html=1;dropTarget=0;whiteSpace=wrap;" vertex="1" parent="1">
          <mxGeometry x="335" y="340" width="180" height="110" as="geometry" />
        </mxCell>
        <mxCell id="l8dGZNgzYC8mOvtLXoca-8" value="" style="shape=component;jettyWidth=8;jettyHeight=4;" vertex="1" parent="l8dGZNgzYC8mOvtLXoca-7">
          <mxGeometry x="1" width="20" height="20" relative="1" as="geometry">
            <mxPoint x="-24" y="4" as="offset" />
          </mxGeometry>
        </mxCell>
        <mxCell id="l8dGZNgzYC8mOvtLXoca-22" value="" style="endArrow=block;dashed=1;endFill=0;endSize=12;html=1;rounded=0;entryX=1.011;entryY=0.541;entryDx=0;entryDy=0;entryPerimeter=0;exitX=0;exitY=0.5;exitDx=0;exitDy=0;" edge="1" parent="1" source="l8dGZNgzYC8mOvtLXoca-5" target="l8dGZNgzYC8mOvtLXoca-4">
          <mxGeometry width="160" relative="1" as="geometry">
            <mxPoint x="340" y="230" as="sourcePoint" />
            <mxPoint x="500" y="230" as="targetPoint" />
          </mxGeometry>
        </mxCell>
        <mxCell id="l8dGZNgzYC8mOvtLXoca-23" value="" style="endArrow=block;dashed=1;endFill=0;endSize=12;html=1;rounded=0;entryX=1;entryY=0.75;entryDx=0;entryDy=0;exitX=0.011;exitY=0.355;exitDx=0;exitDy=0;exitPerimeter=0;" edge="1" parent="1" source="l8dGZNgzYC8mOvtLXoca-7" target="l8dGZNgzYC8mOvtLXoca-4">
          <mxGeometry width="160" relative="1" as="geometry">
            <mxPoint x="340" y="230" as="sourcePoint" />
            <mxPoint x="500" y="230" as="targetPoint" />
          </mxGeometry>
        </mxCell>
      </root>
    </mxGraphModel>
  </diagram>
</mxfile>
